<mxfile host="app.diagrams.net" modified="2024-02-27T09:08:41.674Z" agent="Mozilla/5.0 (Macintosh; Intel Mac OS X 10_15_7) AppleWebKit/537.36 (KHTML, like Gecko) Chrome/121.0.0.0 Safari/537.36" version="23.0.2" etag="bfYwPfo3pZLRjAhom7ey" type="github">
  <diagram name="第 1 页" id="RvP5Q748ZVaIk6C8fVNW">
    <mxGraphModel>
      <root>
        <mxCell id="0" />
        <mxCell id="1" parent="0" />
      </root>
    </mxGraphModel>
  </diagram>
</mxfile>
